<?xml version="1.0" encoding="UTF-8" standalone="no"?>
<svg
   xmlns:dc="http://purl.org/dc/elements/1.1/"
   xmlns:cc="http://creativecommons.org/ns#"
   xmlns:rdf="http://www.w3.org/1999/02/22-rdf-syntax-ns#"
   xmlns:svg="http://www.w3.org/2000/svg"
   xmlns="http://www.w3.org/2000/svg"
   xmlns:sodipodi="http://sodipodi.sourceforge.net/DTD/sodipodi-0.dtd"
   xmlns:inkscape="http://www.inkscape.org/namespaces/inkscape"
   id="ilustraciones"
   viewBox="0 0 1920 1080"
   version="1.1"
   sodipodi:docname="Bits logo marca 21 blanco.svg"
   inkscape:version="1.0 (4035a4f, 2020-05-01)">
  <metadata
     id="metadata873">
    <rdf:RDF>
      <cc:Work
         rdf:about="">
        <dc:format>image/svg+xml</dc:format>
        <dc:type
           rdf:resource="http://purl.org/dc/dcmitype/StillImage" />
      </cc:Work>
    </rdf:RDF>
  </metadata>
  <sodipodi:namedview
     inkscape:document-rotation="0"
     pagecolor="#ffffff"
     bordercolor="#666666"
     borderopacity="1"
     objecttolerance="10"
     gridtolerance="10"
     guidetolerance="10"
     inkscape:pageopacity="0"
     inkscape:pageshadow="2"
     inkscape:window-width="1440"
     inkscape:window-height="790"
     id="namedview871"
     showgrid="false"
     inkscape:zoom="0.28043272"
     inkscape:cx="638.53521"
     inkscape:cy="405.19128"
     inkscape:window-x="0"
     inkscape:window-y="23"
     inkscape:window-maximized="0"
     inkscape:current-layer="ilustraciones" />
  <defs
     id="defs838">
    <style
       id="style833">.cls-1{fill:#e876ab;}.cls-2{clip-path:url(#clip-path);}.cls-3{fill:#e786b6;}.cls-4{fill:#efc0b1;}.cls-5{fill:#e6358a;}</style>
    <clipPath
       id="clip-path">
      <rect
         class="cls-1"
         x="-269.18"
         y="173.01"
         width="162.9"
         height="227.52"
         id="rect835" />
    </clipPath>
  </defs>
  <title
     id="title840">marca svg</title>
  <path
     class="cls-4"
     d="M797.44,1063.78a1.5,1.5,0,0,0,0-3,1.5,1.5,0,0,0,0,3Z"
     id="path848"
     style="fill:#ffffff;fill-opacity:1" />
  <path
     class="cls-5"
     d="M133.43,259.51q-5.58-3.72-5.9-11.49a11.67,11.67,0,0,1,6.53-11.49q18-11.17,51.54-21.73t54-10.56q18,0,25.47,14t7.45,51.86v109.3q21.1-27.31,67.69-27.32,55.9,0,95,44.09t39.12,102.48q0,61.49-35.71,104t-95.95,42.54q-49.69,0-75.77-28.56a20.7,20.7,0,0,1-2.79-3.73,23.48,23.48,0,0,0-2.18-3.11q-18,35.4-49.06,35.4h-72q-9.94,0-9.94-8.07-1.86-8.68,0-13.66.62-1.86,20.81-22.36t18.94-34.78V304.85q0-16.14-6.52-24.84a43.9,43.9,0,0,0-17.7-13.67Q135.29,261.38,133.43,259.51ZM272.55,442.72v18q1.86,21.12,5.9,44.1a506.17,506.17,0,0,0,12.11,51.23q8.07,28.28,22.36,46.27t32.29,18a34.35,34.35,0,0,0,8.08-1.24q47.19-9.32,24.84-130.42-8.7-47.19-25.46-75.46T314.16,385Q276.9,385,272.55,442.72Z"
     id="path850"
     style="fill:#ffffff;fill-opacity:1" />
  <path
     class="cls-5"
     d="M634.62,567.55q0,15.54,19.56,36.65t19.57,26.7v5.59q0,8.7-9.32,8.69H502.34q-9.94,0-9.94-8.07-1.86-8.68,0-13.66,1.86-3.74,12.73-14a168.66,168.66,0,0,0,19.25-21.42q8.39-11.17,7.77-21.74V454.52q0-16.77-6.21-25.46a39.4,39.4,0,0,0-17.39-13.35q-11.19-4.66-13-6.53-5.6-4.33-5.9-12.42a13.22,13.22,0,0,1,6.52-12.42q18-10.54,51.86-20.8t53.72-10.25q18,0,25.46,14t7.45,51.86ZM577.49,226q27.32,0,46.26,14.91t19,36q0,21.12-19.26,36.33t-46,15.22q-26.72,0-46-15.22T512.27,276.9q0-21.1,19.26-36T577.49,226Z"
     id="path852"
     style="fill:#ffffff;fill-opacity:1" />
  <path
     class="cls-5"
     d="M691.13,389.31q-9.32,0-9.31-8.69V371.3q0-8.69,9.31-8.69,21.11,0,37.27-10.25a77,77,0,0,0,25.15-25.15q9-14.91,16.46-30.13a122.89,122.89,0,0,1,16.46-25.77q9-10.55,19.56-11.18h1.24q18,0,18,36.64,0,2.49-.31,25.16t-.31,40.68h52.17q8.07,0,8.07,8.69v9.32q0,8.7-8.07,8.69H823.42q0,29.2-.62,78.88t-.62,59q0,41.61,21.73,41.61,9.93,0,29.81-9.32a8.73,8.73,0,0,1,3.73-.62q5,0,8.38,5c2.28,3.32,2.8,6.62,1.56,9.93q-5.6,26.72-29.5,49.07t-58.07,22.35q-31.07,0-56.21-21.73t-25.15-55.9q0-16.14-.62-85.08t-.62-93.16Z"
     id="path854"
     style="fill:#ffffff;fill-opacity:1" />
  <path
     class="cls-5"
     d="M1132.7,480q10.56,5.58,14,7.76t15.22,10.87q11.79,8.7,17.39,16.14T1190.15,535a62.92,62.92,0,0,1,4.66,27q-.63,30.43-23,51.55t-55.28,30.43q-32.92,9.31-73.28,9.94-60.87.61-99.37-19.87t-42.23-44.72q-2.48-20.49,8.07-35.4T940.17,534a74.81,74.81,0,0,1,11.18-1.25,77.43,77.43,0,0,1,36,9q17.39,9,18.64,18.94,1.23,6.22-6.84,16.15t-9.93,18q-5,18,10.55,29.19t40.37,11.18q24.84,0,38.82-11.49t12.73-28.88q-.63-15.52-17.39-29.81a170.87,170.87,0,0,0-34.16-23q-3.11-1.23-12.11-5.9T1006.94,525q-12.12-6.53-17.7-9.62Q911.6,476.26,916,425.33q4.35-34.77,43.17-56.2T1052,347.7h11.8q54,3.12,81,20.5t28.26,39.12q1.23,12.44-8.39,22.05t-27,10.25a52,52,0,0,1-9.32.62,64.39,64.39,0,0,1-30.74-7.45q-14-7.46-15.84-17.4,0-5.58,8.08-11.79t8.69-12.43q.62-3.72-2.48-8.38c-2.08-3.11-6.32-6.1-12.73-9s-14.39-4.55-23.91-5a87.24,87.24,0,0,0-34.16,6.52q-15.54,6.51-15.53,22.67.62,7.46,8.08,15.21t13,10.87q5.58,3.12,17.39,9.32,2.48,1.24,20.18,10.86t36,19.57Q1122.76,473.79,1132.7,480Z"
     id="path856"
     style="fill:#ffffff;fill-opacity:1" />
  <path
     class="cls-5"
     d="M307.76,872q.62,14.29-5.59,32.3T282.3,941.56q-13.67,19.26-41,33.23T178,991.25c-.83,0-2.48.09-5,.31s-4.34.31-5.59.31q-32.93,0-65.52-13.67T43.19,932.56q-26.08-32-29.81-75.46Q9,796.24,46.3,749.35t96.26-57.45a191.38,191.38,0,0,1,36-3.11q49.06,0,79.5,22.67t36,48.75q3.72,21.12-8.7,38.2t-38.5,18.32q-21.12,0-37.58-9.63T191,777.6q-1.25-6.83,5-23.6,9.32-21.11,1.87-34.78-7.46-9.91-21.74-9.93a35.23,35.23,0,0,0-11.18,1.86q-29.8,8.7-39.75,54.65t8.7,92.54q12.4,32.29,33.84,50.62t48.14,18.32a67.21,67.21,0,0,0,45.64-17.08q19.58-17.07,21.43-43.17,1.23-11.17,12.42-11.17Q307.76,857.72,307.76,872Z"
     id="path858"
     style="fill:#ffffff;fill-opacity:1" />
  <path
     class="cls-5"
     d="M526.5,685.69c.82,0,2.37-.1,4.66-.31s4-.31,5.27-.31q37.27,0,62.73,19.25T624,754.62q0,19.89-13.35,32.61T578,800q-21.74,0-33.53-9t-11.8-23.29q0-11.79,9.31-27.95,5-13.05-.62-23t-19.87-9.94q-24.22-.6-37.57,26.71T469.36,808v94.39q0,15.54,19.56,36.65t19.57,26.7v5.59q0,8.71-9.32,8.7H337.08q-9.94,0-9.94-8.08c-1.24-5.79-.84-10.34,1.24-13.66q1.25-4.33,11.8-14a140.51,140.51,0,0,0,18.94-21.12q8.38-11.49,7.77-22V796.86q0-16.15-6.52-25.16a43.82,43.82,0,0,0-17.08-14q-10.57-5-12.42-6.83-5.6-3.74-5.59-11.18a15.93,15.93,0,0,1,5.59-12.42q9.92-11.17,50.3-24.53t56.52-14q15.51,0,25.46,34.16Q484.89,690.67,526.5,685.69Z"
     id="path860"
     style="fill:#ffffff;fill-opacity:1" />
  <path
     class="cls-5"
     d="M930.79,872a78.71,78.71,0,0,1-3.1,24.85q-3.74,13.67-13,29.81a133.56,133.56,0,0,1-23.6,29.81q-14.29,13.66-38.2,23.91t-53.72,12.11c-1.24,0-3.1.1-5.59.31s-4.35.31-5.59.31a168.93,168.93,0,0,1-49.37-7.45,181.8,181.8,0,0,1-47.2-22.36q-22.68-14.91-38.51-42.23t-19.56-62.73Q627.12,795,663.12,749.66t95.64-55.9a152.64,152.64,0,0,1,32.3-3.1q47.19,0,80.73,24.22t44.1,52.79q6.2,18-5.59,29.5t-39.13,21.42q-8.7,2.49-116.76,40.37,12.42,32.31,34.16,50.31t48.44,18q26.7,0,46.58-16.77T904.71,867q1.24-11.17,13.66-11.17Q930.16,857.72,930.79,872ZM774.29,717.36q-24.85,5-31.68,41.61t5,78.25q13-5.58,64-23.6a33.13,33.13,0,0,0,18-15.52,33.62,33.62,0,0,0,3.73-23.6,122.6,122.6,0,0,0-21.74-40.37q-14.29-17.39-31-17.39A21.93,21.93,0,0,0,774.29,717.36Z"
     id="path862"
     style="fill:#ffffff;fill-opacity:1" />
  <path
     class="cls-5"
     d="M1268.14,942.8q19.24,16.17-2.48,29.19-21.12,10.57-52.79,10.56-55.89-7.45-70.8-81.36a32.29,32.29,0,0,0-.62-3.72q-3.72-16.77-6.83-27t-12.42-22.36q-9.32-12.11-23-12.73h-2.49q-18,0-27.94,15.84t-7.46,41.3q2.48,23.61,20.81,36t42.54,12.42a3.62,3.62,0,0,1,2.49-.62c.82,0,2.48.62,5,1.86q1.24,1.88,1.25,6.21-6.84,12.43-26.09,22.67t-47.82,10.25q-40.38,0-71.11-21.43t-32.61-62.41q-1.23-41.61,32-65.21t74.83-25.47a48.31,48.31,0,0,0,5-.31c2.07-.2,3.73-.31,5-.31q37.88,0,59,14.29c-.41-1.65-.93-4.66-1.55-9s-1.14-7.55-1.55-9.63q-8.72-59.61-20.5-77.63-11.81-17.37-28.57-17.39-30.43,0-19.87,27.33,8.68,17.4,8.69,27.33,0,13-13.66,21.73t-31.67,8.7a47.74,47.74,0,0,1-31.68-11.49q-13.67-11.49-13.66-29.5,0-29.19,30.43-46t74.53-16.77c7.86,0,13.66.22,17.39.62Q1207.27,695,1226.53,789.4q0,3.74,18,101.23Q1252.61,927.29,1268.14,942.8Z"
     id="path864"
     style="fill:#ffffff;fill-opacity:1" />
  <path
     class="cls-5"
     d="M1309.81,759.59a15.61,15.61,0,0,1-5.59-12.11,17.59,17.59,0,0,1,5.59-12.73q9.93-11.18,50-24.53t56.83-14.59q8.07,0,14,7.76a52.81,52.81,0,0,1,8.69,17.39,229.61,229.61,0,0,1,5.28,23.91q25.45-56.51,92.54-56.52a110,110,0,0,1,61.79,18.63q28.26,18.63,41.92,57.76,7.45-36.63,34.47-56.51t64.28-19.88q37.88,0,67.39,24.53t40,76.7q4.34,26.08,22.36,119.87,4.33,12.42,19.56,30.74t15.22,25.77v5.59a8.29,8.29,0,0,1-2.79,5.9,9.69,9.69,0,0,1-7.15,2.8h-159q-10.56,0-10.55-8.08-.63-8.68.62-13.66,0-.62,19.25-21.74t18-35.4q0-26.09-15.53-117.38-5-24.21-14.9-37.88t-29.81-13q-20.5,0-32.92,17.39t-15.22,36.64a170.51,170.51,0,0,0-1.55,36.64H1652q.62,5,3.11,34.16t5.59,45.34q3.72,14.9,20.49,35.71t16.77,27v5.59a8.27,8.27,0,0,1-2.8,5.9,8.9,8.9,0,0,1-6.52,2.8H1529q-9.94,0-9.93-8.08-1.26-8.68.62-13.66.6-2.48,19.25-23t18-34.16V892.5q0-67.08-7.45-107.44-3.74-23-17.08-38.82T1499.23,731a39.26,39.26,0,0,0-23.6,8.7,54,54,0,0,0-15.52,21.12,137.1,137.1,0,0,0-8.08,24.22,198.49,198.49,0,0,0-3.72,23.6v93.77q0,15.54,19.56,36.65t19.56,26.7v5.59q0,8.71-9.31,8.7H1316q-9.94,0-9.93-8.08-1.87-8.68,1.24-13.66,1.23-4.33,11.8-14a141.06,141.06,0,0,0,18.94-21.12q8.39-11.49,7.76-22V804.93q0-16.77-6.21-25.46a39.63,39.63,0,0,0-17.08-13.36Q1311.67,761.46,1309.81,759.59Z"
     id="path866"
     style="fill:#ffffff;fill-opacity:1" />
  <path
     class="cls-5"
     d="M1229.9,471.94c0,94.74,72.72,173.24,195.68,173.24,128.62,0,165.68-122,165.68-122,20.51,7,34.74,11.58,42.88,12.93,88.45,14.73,118.85-58,118.85-96.18,0-35.42-22.11-87.3-81.69-87.3-37.5,0-63,19.63-63.15,53.57-.09,19.43,10.83,36.8,37.3,37,13.16.09,29.9-16.16,29.9-29.12q0-13.71-11.28-23.44s33,1.33,36.38,32.35c1.73,16.08-4.08,28.82-13.73,38-9.18,8.64-20.55,12.91-34,12.91-61.8,0-127.6-78.82-192-78.82-47.1,0-78.62,38.57-81.69,71.74-3.15,34,16.19,70.51,57.91,70.51,32.15,0,53.34-28.43,54.63-47.63,1.49-22.05-7.58-37.9-26-39.25-30.87-2.26-34.94,28.33-34.94,28.33-17.32-14.16-12.08-52.22,30.19-54.78,35.86-2.18,78.06,18.05,74.58,67.7-3.69,52.72-44.24,85.17-95.93,85.17-55.32,0-109.58-38.13-110.74-94.91-1.12-54.66,19.79-93.47,72.31-115,30.17-12.35,53.82-4.78,76.67.39,32.22,7.3,39.26-47.79,18.13-46.51-111.4,6.75-135.8-62.15-135.8-96.72,0-40,21.36-82.37,73.11-82.37,40.26,0,78.28,17.27,77.2,55-2,71.21-64.41,38.78-64.41,38.78,10.87,0,26-10.15,26.51-30.85.41-18.37-10.65-31.43-36.71-30.5-26.3.95-38.41,29.33-38.41,52.31,0,38.75,30.29,60.6,69,60.32,60.41-.43,87.74-44.55,89.52-95.6,2.7-77.35-58.78-123.2-139.82-118.28C1338.91,77.61,1276,135.66,1276,213.05a139.63,139.63,0,0,0,38.75,96.74S1229.9,357.39,1229.9,471.94Z"
     id="path868"
     style="fill:#ffffff;fill-opacity:1" />
</svg>
