<?xml version="1.0" encoding="UTF-8"?>
<svg xmlns="http://www.w3.org/2000/svg" viewBox="0 0 415.2 214.21">
  <defs>
    <style>.cls-1{fill:#fff;}.cls-2{fill:#ff009b;}</style>
  </defs>
  <g id="Capa_2" data-name="Capa 2">
    <g id="Capa_1-2" data-name="Capa 1">
      <path class="cls-1" d="M415.2,192.73v8.6c-3.36,7.41-9.13,10.39-17.21,10.12-11.8-.4-23.61-.44-35.41-.43q-40.23.07-80.47.37c-3.9,0-7.48-2-11.63-.94-7.23,1.79-14.56,1.86-21.4-1.79a6.74,6.74,0,0,0-6.12-.1c-13.12,5.08-25.57,3.86-37.17-4.32-1.3-.91-2.5-2.3-4.22-.77-8,7.09-17.68,9.75-28,10.74h-3.22a19.79,19.79,0,0,0-2.59-.6c-20.68-2-34.47-14.18-38.68-34.21a16.26,16.26,0,0,0-.86-3.09c-1.68-3.79-5.61-3.18-8.4-3.2s-1.4,3.38-1.64,5.28c-.49,3.88,2.58,6.07,4.52,8.78,6.08,8.46,4.36,20.64-4.43,22.52a104.51,104.51,0,0,1-46.12-.31c-3.58-.85-6.11-1.23-9.4.3-19.41,8.95-43.08,2.78-55.27-14.14-12.6-17.49-9.55-46.09,11.39-60.28,2.46-1.68,5.41-2.92,5.15-6.81a16.18,16.18,0,0,1,5.62-13.39c2.3-2.13,2.9-4.71,2.88-7.74-.08-13.42-.1-26.85,0-40.27A9.39,9.39,0,0,0,29,59.18c-8.24-7.3-6.94-18.82,2.51-24.39,4.35-2.56,9.11-4.12,13.89-5.64,22.6-7.22,32.78,3.9,31.84,22.68-.17,3.49,1.11,5.35,4.74,5.67a38.72,38.72,0,0,1,19.88,7.34c1,.71,2.15,1.75,3.34.64s.17-2.34-.26-3.46c-3.39-8.77-1.91-16.82,4.82-23.17,8.24-7.79,18.2-9.56,28.89-5.6,8.76,3.25,14.11,9.37,15.25,19,.21,1.81-1,3.77.41,5.75,3-3.05,4.16-6.94,6.35-10.16,4.65-6.86,10.88-10.55,19.2-8.72,7.73,1.7,10.52,7.84,11.79,15s6.24,9.59,13,7.12c17.8-6.46,35.26-7.23,51.63,4.25,1,.71,2.18,2,3.18.51,2.35-3.66,6.6-6.26,4.26-12.17a35.83,35.83,0,0,1,1.56-30.17C273.93,6.53,288.24-.52,307,0c14,.41,25.21,5.61,31.89,18.12,6.9,12.91,5.77,25.82-2.14,38.12-1.13,1.75-3.26,3.43-1.44,5.67,2.25,2.78,4.26.13,6-.92,8.22-4.87,25.39-4.24,33.54,4.25A32.76,32.76,0,0,1,380.53,102a31.21,31.21,0,0,1-31,17.75c-3.65-.34-9.57,3.94-10.25,7.36a2,2,0,0,0,.56,1.92c2.49,2.88,9,4,12.61,2.26,6.7-3.32,13.72-5.24,21.25-3.93,16.67,2.89,26.55,13,29.77,31.46C405.51,170.87,407.34,182.8,415.2,192.73Z"></path>
      <path class="cls-2" d="M36.71,50.5a2.81,2.81,0,0,1-1.22-2.38,2.42,2.42,0,0,1,1.35-2.38,48.88,48.88,0,0,1,10.68-4.5,39.35,39.35,0,0,1,11.19-2.19A5.5,5.5,0,0,1,64,41.94c1,1.93,1.54,5.52,1.54,10.74V75.32q4.38-5.66,14-5.66,11.57,0,19.67,9.14A31,31,0,0,1,107.33,100q0,12.74-7.4,21.54t-19.87,8.81q-10.29,0-15.69-5.91a3.91,3.91,0,0,1-.58-.77,5.85,5.85,0,0,0-.45-.65q-3.73,7.33-10.16,7.33H38.26c-1.38,0-2.06-.55-2.06-1.67a5.14,5.14,0,0,1,0-2.83,47.58,47.58,0,0,1,4.31-4.63q4.17-4.24,3.92-7.2V59.89a8.47,8.47,0,0,0-1.35-5.15,9.08,9.08,0,0,0-3.67-2.83A12.59,12.59,0,0,1,36.71,50.5ZM65.52,88.44v3.73c.26,2.92.67,6,1.23,9.14a102.21,102.21,0,0,0,2.51,10.61,27.17,27.17,0,0,0,4.63,9.58q3,3.73,6.68,3.73a6.89,6.89,0,0,0,1.68-.26q9.77-1.92,5.14-27-1.8-9.76-5.27-15.63t-8-5.85Q66.43,76.48,65.52,88.44Z"></path>
      <path class="cls-2" d="M140.51,114.3q0,3.21,4.05,7.59t4.06,5.53v1.15c0,1.21-.65,1.8-1.93,1.8H113.12c-1.38,0-2.06-.55-2.06-1.67a5.14,5.14,0,0,1,0-2.83,15.06,15.06,0,0,1,2.63-2.89,35.71,35.71,0,0,0,4-4.44,6.85,6.85,0,0,0,1.61-4.5V90.89A9,9,0,0,0,118,85.61a8,8,0,0,0-3.6-2.76,12.67,12.67,0,0,1-2.7-1.35,3.24,3.24,0,0,1-1.22-2.58,2.75,2.75,0,0,1,1.35-2.57A51.85,51.85,0,0,1,122.57,72a41.07,41.07,0,0,1,11.13-2.12A5.5,5.5,0,0,1,139,72.81c1,1.93,1.54,5.52,1.54,10.74ZM128.68,43.55a15,15,0,0,1,9.58,3.09,9.23,9.23,0,0,1,3.93,7.46,9.36,9.36,0,0,1-4,7.52,15.92,15.92,0,0,1-19,0,9.33,9.33,0,0,1-4-7.52,9.19,9.19,0,0,1,4-7.46A15.08,15.08,0,0,1,128.68,43.55Z"></path>
      <path class="cls-2" d="M152.22,77.38c-1.29,0-1.93-.6-1.93-1.8V73.65c0-1.2.64-1.8,1.93-1.8a14.18,14.18,0,0,0,7.72-2.12,16,16,0,0,0,5.2-5.21c1.25-2.06,2.38-4.14,3.41-6.24A25.69,25.69,0,0,1,172,52.94a5.75,5.75,0,0,1,4-2.31h.26q3.73,0,3.73,7.59c0,.34,0,2.08-.06,5.21s-.07,5.93-.07,8.42h10.81c1.11,0,1.67.6,1.67,1.8v1.93c0,1.2-.56,1.8-1.67,1.8H179.61q0,6-.12,16.34t-.13,12.22q0,8.61,4.5,8.61,2.05,0,6.17-1.93a1.92,1.92,0,0,1,.78-.12,2.07,2.07,0,0,1,1.73,1,2.14,2.14,0,0,1,.32,2.06,19.29,19.29,0,0,1-6.11,10.16,17,17,0,0,1-12,4.63,17.31,17.31,0,0,1-11.64-4.5,14.58,14.58,0,0,1-5.21-11.57q0-3.35-.13-17.63t-.13-19.29Z"></path>
      <path class="cls-2" d="M243.67,96.16c1.46.77,2.42,1.31,2.89,1.61s1.53,1,3.16,2.25a17.59,17.59,0,0,1,3.6,3.34,19.84,19.84,0,0,1,2.25,4.18,12.91,12.91,0,0,1,1,5.6,14.51,14.51,0,0,1-4.76,10.67,27.06,27.06,0,0,1-11.44,6.31,59.57,59.57,0,0,1-15.18,2.06q-12.61.12-20.58-4.12t-8.75-9.26a10.17,10.17,0,0,1,1.67-7.33,10.56,10.56,0,0,1,6.31-4.12,15.66,15.66,0,0,1,2.31-.26,16.08,16.08,0,0,1,7.46,1.87q3.6,1.86,3.86,3.92c.17.86-.3,2-1.41,3.35A9.45,9.45,0,0,0,214,120a5.17,5.17,0,0,0,2.18,6,14,14,0,0,0,8.36,2.32c3.43,0,6.11-.8,8-2.38a6.76,6.76,0,0,0,2.64-6c-.09-2.15-1.29-4.2-3.6-6.18A35.58,35.58,0,0,0,224.5,109c-.43-.17-1.26-.58-2.5-1.22s-2.7-1.41-4.38-2.31-2.89-1.57-3.66-2q-16.08-8.1-15.18-18.65.9-7.2,8.94-11.64T227,68.76h2.44q11.19.64,16.79,4.25t5.85,8.1a5.46,5.46,0,0,1-1.74,4.57,8,8,0,0,1-5.59,2.12,10.25,10.25,0,0,1-1.93.13,13.31,13.31,0,0,1-6.37-1.55q-2.9-1.53-3.28-3.6c0-.77.56-1.58,1.67-2.44a4,4,0,0,0,1.81-2.57,2.48,2.48,0,0,0-.52-1.74,6.24,6.24,0,0,0-2.64-1.86,13.37,13.37,0,0,0-4.95-1,18.07,18.07,0,0,0-7.07,1.35,4.74,4.74,0,0,0-3.22,4.69,5.38,5.38,0,0,0,1.67,3.15,11.74,11.74,0,0,0,2.71,2.25c.77.43,2,1.08,3.6,1.93l4.18,2.25,7.46,4.06Q241.62,94.88,243.67,96.16Z"></path>
      <path class="cls-2" d="M72.82,177.35A18.41,18.41,0,0,1,71.66,184a30.87,30.87,0,0,1-4.12,7.72,22.8,22.8,0,0,1-8.49,6.88,33.69,33.69,0,0,1-13.12,3.41q-.26,0-1,.06c-.52,0-.9.07-1.16.07a35,35,0,0,1-13.57-2.83A31.46,31.46,0,0,1,18,189.89a27.83,27.83,0,0,1-6.17-15.63A31.06,31.06,0,0,1,18.67,152a31.81,31.81,0,0,1,19.93-11.9,39.59,39.59,0,0,1,7.46-.64q10.17,0,16.47,4.69T70,154.2a10,10,0,0,1-1.8,7.91q-2.58,3.54-8,3.79a15.12,15.12,0,0,1-7.78-2,7.45,7.45,0,0,1-3.79-6.11c-.18-.94.17-2.57,1-4.89q1.94-4.36.39-7.2a5.29,5.29,0,0,0-4.5-2.06,7.29,7.29,0,0,0-2.32.39q-6.16,1.8-8.23,11.32a32.26,32.26,0,0,0,1.8,19.16,25.44,25.44,0,0,0,7,10.48,15,15,0,0,0,10,3.8,14,14,0,0,0,9.46-3.54,12.6,12.6,0,0,0,4.43-8.94A2.32,2.32,0,0,1,70.24,174C72,174.26,72.82,175.38,72.82,177.35Z"></path>
      <path class="cls-2" d="M118.12,138.76q.25,0,1-.06c.47,0,.84-.07,1.1-.07a21,21,0,0,1,13,4A12.13,12.13,0,0,1,138.31,153a8.9,8.9,0,0,1-2.76,6.75,9.43,9.43,0,0,1-6.75,2.64c-3,0-5.32-.62-7-1.86a5.81,5.81,0,0,1-2.44-4.83,12,12,0,0,1,1.93-5.79,5.43,5.43,0,0,0-.13-4.76,4.33,4.33,0,0,0-4.12-2.05q-5-.13-7.78,5.53t-3,15.43v19.55q0,3.22,4,7.59t4,5.53v1.16c0,1.2-.64,1.8-1.93,1.8H78.89c-1.37,0-2.06-.55-2.06-1.67a3.76,3.76,0,0,1,.26-2.83,8.67,8.67,0,0,1,2.44-2.89A29.16,29.16,0,0,0,83.46,188a7.06,7.06,0,0,0,1.6-4.56V161.79a8.75,8.75,0,0,0-1.35-5.21,9.13,9.13,0,0,0-3.53-2.9,12.55,12.55,0,0,1-2.58-1.41A2.62,2.62,0,0,1,76.44,150a3.31,3.31,0,0,1,1.16-2.57q2.06-2.31,10.42-5.08t11.71-2.89q3.21,0,5.27,7.07A17.5,17.5,0,0,1,118.12,138.76Z"></path>
      <path class="cls-2" d="M201.85,177.35a16.3,16.3,0,0,1-.64,5.15,26.31,26.31,0,0,1-2.7,6.17,27.67,27.67,0,0,1-4.89,6.17,26.38,26.38,0,0,1-7.91,5,33.28,33.28,0,0,1-11.13,2.5c-.25,0-.64,0-1.15.07s-.9.06-1.16.06A35,35,0,0,1,162,200.89a37.58,37.58,0,0,1-9.77-4.63,25.53,25.53,0,0,1-8-8.75,32.5,32.5,0,0,1-4-13Q139,161.4,146.42,152a34.84,34.84,0,0,1,26.49-12.22,27.74,27.74,0,0,1,16.72,5q6.94,5,9.14,10.93c.85,2.49.47,4.53-1.16,6.11s-4.33,3.07-8.1,4.44q-1.81.51-24.19,8.36a24.76,24.76,0,0,0,7.08,10.42,15.31,15.31,0,0,0,10,3.73,14.53,14.53,0,0,0,9.65-3.47,12,12,0,0,0,4.37-9c.17-1.54,1.11-2.31,2.83-2.31C200.91,174.26,201.77,175.38,201.85,177.35Zm-32.41-32q-5.15,1-6.56,8.62a35.3,35.3,0,0,0,1,16.21q2.7-1.16,13.25-4.89a6.85,6.85,0,0,0,3.73-3.22,7,7,0,0,0,.77-4.88,25.41,25.41,0,0,0-4.5-8.36c-2-2.4-4.12-3.61-6.43-3.61A4.72,4.72,0,0,0,169.44,145.32Z"></path>
      <path class="cls-2" d="M271.72,192q4,3.36-.51,6.05a24.33,24.33,0,0,1-10.94,2.19q-11.56-1.55-14.66-16.85a5.65,5.65,0,0,0-.13-.78c-.51-2.31-1-4.18-1.41-5.59a14.87,14.87,0,0,0-2.58-4.63,6.19,6.19,0,0,0-4.75-2.64h-.52a6.49,6.49,0,0,0-5.79,3.28q-2.06,3.28-1.54,8.56a9.77,9.77,0,0,0,4.31,7.46,15.34,15.34,0,0,0,8.81,2.57.71.71,0,0,1,.51-.13,3.06,3.06,0,0,1,1,.39,2.38,2.38,0,0,1,.26,1.28,12.76,12.76,0,0,1-5.4,4.7A21,21,0,0,1,228.5,200a25.08,25.08,0,0,1-14.72-4.44q-6.37-4.44-6.76-12.93a15.06,15.06,0,0,1,6.63-13.5,28.29,28.29,0,0,1,15.5-5.27,9.27,9.27,0,0,0,1-.07c.42,0,.77-.06,1-.06q7.85,0,12.22,3c-.08-.35-.19-1-.32-1.87s-.23-1.56-.32-2q-1.8-12.36-4.24-16.08c-1.63-2.4-3.61-3.6-5.92-3.6q-6.3,0-4.12,5.66a13.9,13.9,0,0,1,1.8,5.66,5.25,5.25,0,0,1-2.83,4.5,11.93,11.93,0,0,1-6.56,1.8,9.89,9.89,0,0,1-6.56-2.38,7.64,7.64,0,0,1-2.83-6.11q0-6,6.31-9.52t15.43-3.47a34.64,34.64,0,0,1,3.6.13q22.26,1.28,26.24,20.83,0,.78,3.73,21Q268.51,188.8,271.72,192Z"></path>
      <path class="cls-2" d="M280.35,154.07a3.24,3.24,0,0,1-1.16-2.51,3.67,3.67,0,0,1,1.16-2.64q2.06-2.31,10.36-5.08t11.76-3a3.58,3.58,0,0,1,2.9,1.61,11.07,11.07,0,0,1,1.8,3.6,45.58,45.58,0,0,1,1.09,4.95q5.28-11.7,19.17-11.7a22.75,22.75,0,0,1,12.8,3.86q5.85,3.86,8.68,12a18.52,18.52,0,0,1,7.14-11.71,21.85,21.85,0,0,1,13.31-4.11,21.23,21.23,0,0,1,14,5.08q6.1,5.08,8.29,15.88.9,5.41,4.63,24.83a22.65,22.65,0,0,0,4.05,6.37c2.11,2.53,3.16,4.3,3.16,5.33v1.16a1.73,1.73,0,0,1-.58,1.22,2,2,0,0,1-1.48.58H368.46c-1.46,0-2.19-.55-2.19-1.67a9.68,9.68,0,0,1,.13-2.83c0-.08,1.33-1.59,4-4.5s3.9-5.36,3.73-7.33q0-5.42-3.22-24.31a20.19,20.19,0,0,0-3.08-7.85,6.84,6.84,0,0,0-6.18-2.7,8,8,0,0,0-6.81,3.6,17.21,17.21,0,0,0-3.16,7.59,35.79,35.79,0,0,0-.32,7.59h-.13c.09.69.3,3,.65,7.07a91.49,91.49,0,0,0,1.16,9.39q.77,3.09,4.24,7.4c2.31,2.87,3.47,4.74,3.47,5.59v1.16a1.69,1.69,0,0,1-.58,1.22,1.82,1.82,0,0,1-1.35.58H325.76c-1.38,0-2.06-.55-2.06-1.67a5.89,5.89,0,0,1,.13-2.83q.12-.51,4-4.76t3.73-7.07v-1.8A127.77,127.77,0,0,0,330,159.34a16.16,16.16,0,0,0-3.54-8A8.41,8.41,0,0,0,314.69,150a11.25,11.25,0,0,0-3.21,4.38,28.52,28.52,0,0,0-1.67,5,42.35,42.35,0,0,0-.78,4.89v19.42c0,2.15,1.36,4.68,4.06,7.59s4.05,4.76,4.05,5.53v1.16c0,1.2-.64,1.8-1.93,1.8H281.64c-1.38,0-2.06-.55-2.06-1.67a3.76,3.76,0,0,1,.26-2.83,8.67,8.67,0,0,1,2.44-2.89A28.56,28.56,0,0,0,286.2,188a7,7,0,0,0,1.61-4.56V163.46a9.07,9.07,0,0,0-1.28-5.27,8.21,8.21,0,0,0-3.54-2.77A11.66,11.66,0,0,1,280.35,154.07Z"></path>
      <path class="cls-2" d="M263.8,94.49c0,19.63,15.06,35.88,40.53,35.88,26.64,0,34.31-25.27,34.31-25.27a72.15,72.15,0,0,0,8.88,2.68c18.32,3,24.62-12,24.62-19.92,0-7.34-4.58-18.08-16.92-18.08-7.77,0-13.05,4.06-13.08,11.09,0,4,2.24,7.62,7.73,7.66,2.72,0,6.19-3.35,6.19-6a6.19,6.19,0,0,0-2.34-4.86s6.84.28,7.54,6.7a9.12,9.12,0,0,1-2.85,7.87,9.86,9.86,0,0,1-7,2.67c-12.8,0-26.43-16.32-39.76-16.32A17.15,17.15,0,0,0,294.7,93.42c-.65,7,3.35,14.6,12,14.6,6.65,0,11-5.89,11.31-9.86.31-4.57-1.57-7.85-5.38-8.13-6.39-.47-7.24,5.87-7.24,5.87-3.58-2.94-2.5-10.82,6.26-11.35,7.42-.45,16.16,3.74,15.44,14-.76,10.92-9.16,17.64-19.87,17.64-11.45,0-22.69-7.9-22.93-19.66-.23-11.32,4.1-19.35,15-23.81,6.25-2.55,11.15-1,15.88.09,6.68,1.51,8.14-9.9,3.76-9.64-23.07,1.4-28.13-12.87-28.13-20,0-8.29,4.43-17.06,15.14-17.06,8.34,0,16.22,3.58,16,11.4-.42,14.75-13.34,8-13.34,8,2.25,0,5.4-2.1,5.49-6.39.09-3.8-2.2-6.51-7.6-6.31s-7.95,6.07-7.95,10.83c0,8,6.27,12.55,14.29,12.49,12.52-.09,18.18-9.22,18.55-19.8.55-16-12.18-25.51-29-24.5-16,1-29,13-29,29a28.92,28.92,0,0,0,8,20S263.8,70.77,263.8,94.49Z"></path>
    </g>
  </g>
</svg>
