<?xml version="1.0" encoding="UTF-8" standalone="no"?>
<svg xmlns:inkscape="http://www.inkscape.org/namespaces/inkscape" xmlns:sodipodi="http://sodipodi.sourceforge.net/DTD/sodipodi-0.dtd" xmlns="http://www.w3.org/2000/svg" xmlns:svg="http://www.w3.org/2000/svg" id="App_Store" data-name="App Store" viewBox="0 0 217.61 64.05" version="1.1" sodipodi:docname="App Store.svg" inkscape:version="1.2.2 (b0a8486, 2022-12-01)">
  <defs id="defs4">
    <style id="style2">
      .cls-1 {
        fill: #020a0a;
      }

      .cls-2, .cls-3 {
        fill: #fff;
      }

      .cls-3 {
        font-family: Gotham-Book, Gotham;
        font-size: 12px;
      }
    </style>
  </defs>
  <rect class="cls-1" width="217.61" height="64.05" rx="8.19" ry="8.19" id="rect6" style="fill:#ffffff;fill-opacity:1"></rect>
  <g id="g32" style="fill:#ff009c;fill-opacity:1">
    <g id="g12" style="fill:#ff009c;fill-opacity:1">
      <path class="cls-2" d="M48.57,31.4c-.05-5.21,4.26-7.74,4.46-7.86-2.44-3.56-6.23-4.05-7.56-4.09-3.18-.33-6.26,1.9-7.88,1.9s-4.15-1.87-6.83-1.82c-3.46,.06-6.69,2.06-8.47,5.16-3.66,6.34-.93,15.65,2.58,20.78,1.76,2.51,3.81,5.31,6.49,5.21,2.62-.11,3.6-1.67,6.77-1.67s4.06,1.67,6.8,1.61c2.82-.05,4.59-2.52,6.28-5.05,2.03-2.88,2.84-5.71,2.88-5.85-.07-.02-5.47-2.08-5.53-8.33" id="path8" style="fill:#ff009c;fill-opacity:1"></path>
      <path class="cls-2" d="M43.39,16.09c1.41-1.77,2.38-4.17,2.11-6.61-2.04,.09-4.6,1.41-6.07,3.14-1.3,1.52-2.47,4.02-2.17,6.36,2.3,.17,4.65-1.16,6.13-2.9" id="path10" style="fill:#ff009c;fill-opacity:1"></path>
    </g>
    <g id="g30" style="fill:#ff009c;fill-opacity:1">
      <path class="cls-2" d="M86.51,50.28h-3.66l-2-6.3h-6.96l-1.91,6.3h-3.56l6.9-21.44h4.26l6.93,21.44Zm-6.26-8.94l-1.81-5.6c-.19-.57-.55-1.92-1.08-4.04h-.06c-.21,.91-.55,2.26-1.02,4.04l-1.78,5.6h5.76Z" id="path14" style="fill:#ff009c;fill-opacity:1"></path>
      <path class="cls-2" d="M104.26,42.36c0,2.63-.71,4.71-2.13,6.23-1.27,1.36-2.85,2.03-4.74,2.03-2.04,0-3.5-.73-4.39-2.19h-.06v8.14h-3.44v-16.67c0-1.65-.04-3.35-.13-5.09h3.02l.19,2.45h.07c1.14-1.85,2.88-2.77,5.21-2.77,1.82,0,3.35,.72,4.56,2.16,1.22,1.44,1.83,3.34,1.83,5.69m-3.5,.13c0-1.5-.34-2.75-1.02-3.72-.74-1.02-1.74-1.53-2.99-1.53-.85,0-1.62,.28-2.31,.84-.69,.57-1.14,1.3-1.35,2.21-.11,.42-.16,.77-.16,1.05v2.58c0,1.12,.34,2.07,1.03,2.84,.69,.78,1.59,1.16,2.69,1.16,1.29,0,2.3-.49,3.02-1.49,.72-1,1.08-2.31,1.08-3.95" id="path16" style="fill:#ff009c;fill-opacity:1"></path>
      <path class="cls-2" d="M122.04,42.36c0,2.63-.71,4.71-2.13,6.23-1.27,1.36-2.85,2.03-4.74,2.03-2.03,0-3.5-.73-4.39-2.19h-.06v8.14h-3.43v-16.67c0-1.65-.04-3.35-.13-5.09h3.02l.19,2.45h.07c1.14-1.85,2.88-2.77,5.21-2.77,1.82,0,3.34,.72,4.56,2.16,1.22,1.44,1.83,3.34,1.83,5.69m-3.5,.13c0-1.5-.34-2.75-1.02-3.72-.74-1.02-1.74-1.53-2.99-1.53-.85,0-1.62,.28-2.31,.84-.69,.57-1.14,1.3-1.35,2.21-.11,.42-.16,.77-.16,1.05v2.58c0,1.12,.34,2.07,1.03,2.84,.69,.78,1.58,1.16,2.69,1.16,1.29,0,2.3-.49,3.02-1.49,.72-1,1.08-2.31,1.08-3.95" id="path18" style="fill:#ff009c;fill-opacity:1"></path>
      <path class="cls-2" d="M141.92,44.27c0,1.82-.63,3.31-1.91,4.45-1.4,1.25-3.34,1.88-5.84,1.88-2.31,0-4.16-.44-5.56-1.33l.8-2.86c1.51,.91,3.16,1.37,4.97,1.37,1.29,0,2.3-.29,3.02-.87,.72-.59,1.08-1.37,1.08-2.34,0-.87-.3-1.6-.89-2.2-.59-.6-1.58-1.15-2.96-1.66-3.75-1.4-5.63-3.45-5.63-6.15,0-1.76,.66-3.21,1.97-4.33,1.31-1.13,3.06-1.69,5.25-1.69,1.95,0,3.57,.34,4.86,1.02l-.86,2.8c-1.21-.66-2.58-.99-4.1-.99-1.21,0-2.15,.3-2.83,.89-.57,.53-.86,1.18-.86,1.94,0,.85,.33,1.55,.98,2.1,.57,.51,1.61,1.06,3.12,1.66,1.84,.74,3.2,1.61,4.07,2.61,.87,1,1.3,2.24,1.3,3.72" id="path20" style="fill:#ff009c;fill-opacity:1"></path>
      <path class="cls-2" d="M153.27,37.4h-3.78v7.51c0,1.91,.67,2.86,2.01,2.86,.61,0,1.12-.05,1.52-.16l.09,2.61c-.67,.25-1.57,.38-2.67,.38-1.36,0-2.42-.41-3.18-1.24-.76-.83-1.15-2.22-1.15-4.17v-7.79h-2.26v-2.58h2.26v-2.83l3.37-1.02v3.85h3.78v2.58Z" id="path22" style="fill:#ff009c;fill-opacity:1"></path>
      <path class="cls-2" d="M170.35,42.43c0,2.38-.68,4.33-2.03,5.85-1.42,1.57-3.31,2.35-5.66,2.35s-4.08-.75-5.42-2.26c-1.35-1.5-2.02-3.4-2.02-5.69,0-2.4,.69-4.36,2.08-5.88,1.39-1.53,3.26-2.29,5.61-2.29s4.09,.75,5.47,2.26c1.32,1.47,1.97,3.35,1.97,5.66m-3.56,.11c0-1.42-.31-2.65-.92-3.67-.72-1.23-1.75-1.85-3.08-1.85s-2.43,.62-3.15,1.85c-.62,1.02-.92,2.26-.92,3.73s.3,2.65,.92,3.67c.74,1.23,1.78,1.85,3.12,1.85s2.34-.63,3.08-1.88c.64-1.04,.95-2.27,.95-3.7" id="path24" style="fill:#ff009c;fill-opacity:1"></path>
      <path class="cls-2" d="M181.51,37.85c-.34-.06-.7-.09-1.08-.09-1.21,0-2.14,.46-2.8,1.37-.57,.81-.86,1.82-.86,3.05v8.11h-3.43l.03-10.59c0-1.78-.04-3.4-.13-4.87h2.99l.13,2.96h.09c.36-1.02,.94-1.84,1.72-2.45,.76-.55,1.59-.83,2.48-.83,.32,0,.6,.02,.86,.06v3.28Z" id="path26" style="fill:#ff009c;fill-opacity:1"></path>
      <path class="cls-2" d="M196.87,41.82c0,.62-.04,1.13-.12,1.56h-10.3c.04,1.53,.54,2.69,1.49,3.5,.87,.72,1.99,1.08,3.37,1.08,1.52,0,2.91-.24,4.17-.73l.54,2.39c-1.46,.64-3.19,.96-5.19,.96-2.39,0-4.28-.71-5.64-2.12-1.36-1.41-2.05-3.3-2.05-5.68s.64-4.27,1.91-5.82c1.33-1.65,3.14-2.48,5.4-2.48s3.92,.83,5.06,2.48c.91,1.32,1.36,2.94,1.36,4.87m-3.27-.89c.02-1.02-.2-1.9-.67-2.64-.59-.95-1.51-1.43-2.74-1.43-1.12,0-2.03,.47-2.73,1.4-.57,.74-.91,1.63-1.01,2.67h7.15Z" id="path28" style="fill:#ff009c;fill-opacity:1"></path>
    </g>
  </g>
  <text class="cls-3" transform="translate(68.41 21.68)" id="text36" style="fill:#ff009c;fill-opacity:1">
    <tspan x="0" y="0" id="tspan34" style="fill:#ff009c;fill-opacity:1">DISPONIBLE EN</tspan>
  </text>
</svg>
